<mxfile host="app.diagrams.net" modified="2021-11-24T07:18:01.825Z" agent="5.0 (Windows NT 10.0; Win64; x64) AppleWebKit/537.36 (KHTML, like Gecko) Chrome/96.0.4664.45 Safari/537.36" etag="DntGmvdDr3eMcG5iQ_GL" version="15.7.4" type="github">
  <diagram id="pEbqLUpxIVuzpO0PTzrP" name="Page-1">
    <mxGraphModel dx="1185" dy="588" grid="1" gridSize="10" guides="1" tooltips="1" connect="1" arrows="1" fold="1" page="1" pageScale="1" pageWidth="827" pageHeight="1169" math="0" shadow="0">
      <root>
        <mxCell id="0" />
        <mxCell id="1" parent="0" />
        <mxCell id="ijF5cBioTtc_Avgv8xnH-52" value="" style="rounded=0;whiteSpace=wrap;html=1;fillColor=#dae8fc;strokeColor=none;" parent="1" vertex="1">
          <mxGeometry x="130" y="360" width="630" height="60" as="geometry" />
        </mxCell>
        <mxCell id="ijF5cBioTtc_Avgv8xnH-50" value="" style="rounded=0;whiteSpace=wrap;html=1;fillColor=#d5e8d4;strokeColor=none;" parent="1" vertex="1">
          <mxGeometry x="130" y="200" width="630" height="80" as="geometry" />
        </mxCell>
        <mxCell id="ijF5cBioTtc_Avgv8xnH-48" value="" style="rounded=0;whiteSpace=wrap;html=1;fillColor=#e1d5e7;strokeColor=none;" parent="1" vertex="1">
          <mxGeometry x="130" y="139" width="630.75" height="50" as="geometry" />
        </mxCell>
        <mxCell id="ijF5cBioTtc_Avgv8xnH-46" value="" style="rounded=0;whiteSpace=wrap;html=1;fillColor=#f8cecc;strokeColor=none;" parent="1" vertex="1">
          <mxGeometry x="130" y="80" width="630.75" height="50" as="geometry" />
        </mxCell>
        <mxCell id="ijF5cBioTtc_Avgv8xnH-2" value="异构数据源" style="rounded=0;whiteSpace=wrap;html=1;strokeColor=none;" parent="1" vertex="1">
          <mxGeometry x="200" y="369.97" width="550" height="40.03" as="geometry" />
        </mxCell>
        <mxCell id="ijF5cBioTtc_Avgv8xnH-20" value="" style="rounded=0;whiteSpace=wrap;html=1;fillColor=#ffe6cc;strokeColor=none;" parent="1" vertex="1">
          <mxGeometry x="130" y="290" width="630" height="60" as="geometry" />
        </mxCell>
        <mxCell id="ijF5cBioTtc_Avgv8xnH-21" value="集群管理" style="rounded=0;whiteSpace=wrap;html=1;strokeColor=none;fillColor=#CCCCCC;" parent="1" vertex="1">
          <mxGeometry x="199.25" y="302" width="70" height="36" as="geometry" />
        </mxCell>
        <mxCell id="ijF5cBioTtc_Avgv8xnH-22" value="任务调度" style="rounded=0;whiteSpace=wrap;html=1;strokeColor=none;fillColor=#CCCCCC;" parent="1" vertex="1">
          <mxGeometry x="278" y="302" width="70" height="36" as="geometry" />
        </mxCell>
        <mxCell id="ijF5cBioTtc_Avgv8xnH-23" value="失败重试" style="rounded=0;whiteSpace=wrap;html=1;strokeColor=none;fillColor=#CCCCCC;" parent="1" vertex="1">
          <mxGeometry x="356" y="302" width="70" height="36" as="geometry" />
        </mxCell>
        <mxCell id="ijF5cBioTtc_Avgv8xnH-24" value="流控" style="rounded=0;whiteSpace=wrap;html=1;strokeColor=none;fillColor=#CCCCCC;" parent="1" vertex="1">
          <mxGeometry x="518" y="302" width="60" height="36" as="geometry" />
        </mxCell>
        <mxCell id="ijF5cBioTtc_Avgv8xnH-25" value="数据源连接管理" style="rounded=0;whiteSpace=wrap;html=1;strokeColor=none;fillColor=#CCCCCC;" parent="1" vertex="1">
          <mxGeometry x="435" y="302" width="70" height="36" as="geometry" />
        </mxCell>
        <mxCell id="ijF5cBioTtc_Avgv8xnH-26" value="资源调整" style="rounded=0;whiteSpace=wrap;html=1;strokeColor=none;fillColor=#CCCCCC;" parent="1" vertex="1">
          <mxGeometry x="592" y="302" width="70" height="36" as="geometry" />
        </mxCell>
        <mxCell id="ijF5cBioTtc_Avgv8xnH-27" value="负载平衡" style="rounded=0;whiteSpace=wrap;html=1;strokeColor=none;fillColor=#CCCCCC;" parent="1" vertex="1">
          <mxGeometry x="670" y="302" width="70" height="36" as="geometry" />
        </mxCell>
        <mxCell id="ijF5cBioTtc_Avgv8xnH-28" value="数据&lt;br&gt;集成" style="rounded=0;whiteSpace=wrap;html=1;strokeColor=none;" parent="1" vertex="1">
          <mxGeometry x="200" y="210" width="54" height="60" as="geometry" />
        </mxCell>
        <mxCell id="ijF5cBioTtc_Avgv8xnH-29" value="数据&lt;br&gt;同步" style="rounded=0;whiteSpace=wrap;html=1;strokeColor=none;" parent="1" vertex="1">
          <mxGeometry x="271" y="210" width="54" height="60" as="geometry" />
        </mxCell>
        <mxCell id="ijF5cBioTtc_Avgv8xnH-30" value="数据&lt;br&gt;迁移" style="rounded=0;whiteSpace=wrap;html=1;strokeColor=none;" parent="1" vertex="1">
          <mxGeometry x="342" y="210" width="54" height="60" as="geometry" />
        </mxCell>
        <mxCell id="ijF5cBioTtc_Avgv8xnH-31" value="数据&lt;br&gt;采集" style="rounded=0;whiteSpace=wrap;html=1;strokeColor=none;" parent="1" vertex="1">
          <mxGeometry x="413" y="210" width="54" height="60" as="geometry" />
        </mxCell>
        <mxCell id="ijF5cBioTtc_Avgv8xnH-32" value="数据&lt;br&gt;转换" style="rounded=0;whiteSpace=wrap;html=1;strokeColor=none;" parent="1" vertex="1">
          <mxGeometry x="483" y="210" width="54" height="60" as="geometry" />
        </mxCell>
        <mxCell id="ijF5cBioTtc_Avgv8xnH-33" value="数据&lt;br&gt;清洗" style="rounded=0;whiteSpace=wrap;html=1;strokeColor=none;" parent="1" vertex="1">
          <mxGeometry x="554" y="210" width="54" height="60" as="geometry" />
        </mxCell>
        <mxCell id="ijF5cBioTtc_Avgv8xnH-34" value="数据&lt;br&gt;合并" style="rounded=0;whiteSpace=wrap;html=1;strokeColor=none;" parent="1" vertex="1">
          <mxGeometry x="625" y="210" width="54" height="60" as="geometry" />
        </mxCell>
        <mxCell id="ijF5cBioTtc_Avgv8xnH-36" value="数据&lt;br&gt;入仓" style="rounded=0;whiteSpace=wrap;html=1;strokeColor=none;" parent="1" vertex="1">
          <mxGeometry x="696" y="210" width="54" height="60" as="geometry" />
        </mxCell>
        <mxCell id="ijF5cBioTtc_Avgv8xnH-37" value="Web API" style="rounded=0;whiteSpace=wrap;html=1;strokeColor=none;" parent="1" vertex="1">
          <mxGeometry x="200" y="149" width="150" height="30" as="geometry" />
        </mxCell>
        <mxCell id="ijF5cBioTtc_Avgv8xnH-38" value="Restful API" style="rounded=0;whiteSpace=wrap;html=1;strokeColor=none;" parent="1" vertex="1">
          <mxGeometry x="359" y="149.27" width="124" height="30" as="geometry" />
        </mxCell>
        <mxCell id="ijF5cBioTtc_Avgv8xnH-39" value="Client SDK" style="rounded=0;whiteSpace=wrap;html=1;strokeColor=none;" parent="1" vertex="1">
          <mxGeometry x="491.34" y="149.27" width="124.66" height="30" as="geometry" />
        </mxCell>
        <mxCell id="ijF5cBioTtc_Avgv8xnH-41" value="Web UI" style="rounded=0;whiteSpace=wrap;html=1;fillColor=#f5f5f5;fontColor=#333333;strokeColor=none;" parent="1" vertex="1">
          <mxGeometry x="199.25" y="90" width="550.75" height="30" as="geometry" />
        </mxCell>
        <mxCell id="ijF5cBioTtc_Avgv8xnH-44" value="ds Connector" style="rounded=0;whiteSpace=wrap;html=1;strokeColor=none;" parent="1" vertex="1">
          <mxGeometry x="625" y="149" width="125" height="30" as="geometry" />
        </mxCell>
        <mxCell id="ijF5cBioTtc_Avgv8xnH-47" value="应用层" style="text;html=1;strokeColor=none;fillColor=none;align=center;verticalAlign=middle;whiteSpace=wrap;rounded=0;fontSize=14;fontStyle=1" parent="1" vertex="1">
          <mxGeometry x="140" y="95.27" width="45" height="20" as="geometry" />
        </mxCell>
        <mxCell id="ijF5cBioTtc_Avgv8xnH-49" value="接入层" style="text;html=1;strokeColor=none;fillColor=none;align=center;verticalAlign=middle;whiteSpace=wrap;rounded=0;fontSize=14;fontStyle=1" parent="1" vertex="1">
          <mxGeometry x="140" y="154.27" width="45" height="20" as="geometry" />
        </mxCell>
        <mxCell id="ijF5cBioTtc_Avgv8xnH-51" value="功能层" style="text;html=1;strokeColor=none;fillColor=none;align=center;verticalAlign=middle;whiteSpace=wrap;rounded=0;fontSize=14;fontStyle=1" parent="1" vertex="1">
          <mxGeometry x="140" y="230.27" width="45" height="20" as="geometry" />
        </mxCell>
        <mxCell id="ijF5cBioTtc_Avgv8xnH-53" value="管理层" style="text;html=1;strokeColor=none;fillColor=none;align=center;verticalAlign=middle;whiteSpace=wrap;rounded=0;fontSize=14;fontStyle=1" parent="1" vertex="1">
          <mxGeometry x="140" y="310.27" width="45" height="20" as="geometry" />
        </mxCell>
        <mxCell id="ijF5cBioTtc_Avgv8xnH-54" value="资源层" style="text;html=1;strokeColor=none;fillColor=none;align=center;verticalAlign=middle;whiteSpace=wrap;rounded=0;fontSize=14;fontStyle=1" parent="1" vertex="1">
          <mxGeometry x="140" y="380" width="45" height="20" as="geometry" />
        </mxCell>
      </root>
    </mxGraphModel>
  </diagram>
</mxfile>
